<svg xmlns="http://www.w3.org/2000/svg" width="1200" height="480" viewBox="0 0 1200 480" fill="none" role="img" >
  <defs>
    <linearGradient id="tfEmber" x1="0" y1="0" x2="1" y2="1"><stop stop-color="#ff8a4c"/><stop offset="1" stop-color="#d96b3b"/></linearGradient>
    <linearGradient id="tfViolet" x1="0" y1="0" x2="1" y2="1"><stop stop-color="#8fa5ff"/><stop offset="1" stop-color="#5e6ad2"/></linearGradient>
    <linearGradient id="tfGold" x1="0" y1="0" x2="1" y2="1"><stop stop-color="#d7bd82"/><stop offset="1" stop-color="#8f7248"/></linearGradient>
    <radialGradient id="tfGlow" cx="50%" cy="50%" r="50%"><stop stop-color="#d96b3b" stop-opacity=".48"/><stop offset="1" stop-color="#d96b3b" stop-opacity="0"/></radialGradient>
    <filter id="softShadow" x="-20%" y="-20%" width="140%" height="140%"><feDropShadow dx="0" dy="20" stdDeviation="18" flood-color="#000" flood-opacity=".34"/></filter>
  </defs>
  <rect width="1200" height="480" fill="#08090a"/>
<title>TinyFoundry demo triptych raw to app</title><rect x="70" y="86" width="292" height="300" rx="34" fill="#f7f8f8" stroke="#ffffff22"/><text x="98" y="142" fill="#08090a" font-family="Inter" font-size="30" font-weight="820">Raw workbook</text><text x="98" y="180" fill="#08090a" opacity=".58" font-family="Inter" font-size="18">tabs, formulas, notes</text><rect x="98" y="230" width="156" height="20" rx="10" fill="#d96b3b"/><path d="M98 278h210M98 316h156" stroke="#08090a" opacity=".18" stroke-width="9" stroke-linecap="round"/><path d="M374 236h86" stroke="url(#tfViolet)" stroke-width="5"/><path d="M460 236l-18-12v24z" fill="#8fa5ff"/><rect x="430" y="86" width="292" height="300" rx="34" fill="#111316" stroke="#ffffff22"/><text x="458" y="142" fill="#f7f8f8" font-family="Inter" font-size="30" font-weight="820">Mapped workflow</text><text x="458" y="180" fill="#f7f8f8" opacity=".58" font-family="Inter" font-size="18">rules, checks, approvals</text><rect x="458" y="230" width="156" height="20" rx="10" fill="#d96b3b"/><path d="M458 278h210M458 316h156" stroke="#f7f8f8" opacity=".18" stroke-width="9" stroke-linecap="round"/><path d="M734 236h86" stroke="url(#tfViolet)" stroke-width="5"/><path d="M820 236l-18-12v24z" fill="#8fa5ff"/><rect x="790" y="86" width="292" height="300" rx="34" fill="#f7f8f8" stroke="#ffffff22"/><text x="818" y="142" fill="#08090a" font-family="Inter" font-size="30" font-weight="820">Desktop app</text><text x="818" y="180" fill="#08090a" opacity=".58" font-family="Inter" font-size="18">intake, review, export</text><rect x="818" y="230" width="156" height="20" rx="10" fill="#d96b3b"/><path d="M818 278h210M818 316h156" stroke="#08090a" opacity=".18" stroke-width="9" stroke-linecap="round"/>
</svg>